<svg width="18" height="20" viewBox="0 0 18 20" fill="none" xmlns="http://www.w3.org/2000/svg">
<path d="M8.99998 9.38466C9.85196 9.38466 10.6848 9.13202 11.3932 8.65868C12.1016 8.18535 12.6537 7.51258 12.9798 6.72545C13.3058 5.93833 13.3911 5.07219 13.2249 4.23659C13.0587 3.40098 12.6484 2.63342 12.046 2.03098C11.4435 1.42854 10.676 1.01827 9.84037 0.85206C9.00476 0.685847 8.13863 0.771154 7.3515 1.09719C6.56438 1.42323 5.89161 1.97536 5.41827 2.68375C4.94494 3.39215 4.6923 4.22499 4.6923 5.07697C4.6923 6.21944 5.14614 7.31512 5.95399 8.12297C6.76184 8.93081 7.85751 9.38466 8.99998 9.38466ZM8.99998 2.00006C9.60854 2.00006 10.2034 2.18051 10.7094 2.51861C11.2154 2.85671 11.6098 3.33726 11.8427 3.89949C12.0756 4.46172 12.1365 5.08039 12.0178 5.67725C11.8991 6.27411 11.606 6.82237 11.1757 7.25268C10.7454 7.683 10.1971 7.97605 9.60026 8.09477C9.0034 8.21349 8.38473 8.15256 7.8225 7.91967C7.26026 7.68679 6.77971 7.29241 6.44162 6.78642C6.10352 6.28042 5.92306 5.68553 5.92306 5.07697C5.92306 4.26092 6.24724 3.4783 6.82427 2.90126C7.40131 2.32423 8.18393 2.00006 8.99998 2.00006Z" fill="#575DFB"/>
<path d="M16.6738 13.92C15.6869 12.877 14.4977 12.0461 13.1788 11.4783C11.8599 10.9105 10.439 10.6177 9.00306 10.6177C7.56712 10.6177 6.14626 10.9105 4.82735 11.4783C3.50844 12.0461 2.31919 12.877 1.33231 13.92C1.11835 14.1486 0.999516 14.45 1 14.7631V18C1 18.3264 1.12967 18.6395 1.36048 18.8703C1.5913 19.1011 1.90435 19.2308 2.23077 19.2308H15.7692C16.0956 19.2308 16.4087 19.1011 16.6395 18.8703C16.8703 18.6395 17 18.3264 17 18V14.7631C17.0021 14.4509 16.8855 14.1495 16.6738 13.92ZM15.7692 18H2.23077V14.757C3.10291 13.8386 4.15279 13.1073 5.31652 12.6076C6.48025 12.1079 7.7335 11.8502 8.99999 11.8502C10.2665 11.8502 11.5197 12.1079 12.6835 12.6076C13.8472 13.1073 14.8971 13.8386 15.7692 14.757V18Z" fill="#575DFB"/>
<path d="M8.99998 9.38466C9.85196 9.38466 10.6848 9.13202 11.3932 8.65868C12.1016 8.18535 12.6537 7.51258 12.9798 6.72545C13.3058 5.93833 13.3911 5.07219 13.2249 4.23659C13.0587 3.40098 12.6484 2.63342 12.046 2.03098C11.4435 1.42854 10.676 1.01827 9.84037 0.85206C9.00476 0.685847 8.13863 0.771154 7.3515 1.09719C6.56438 1.42323 5.89161 1.97536 5.41827 2.68375C4.94494 3.39215 4.6923 4.22499 4.6923 5.07697C4.6923 6.21944 5.14614 7.31512 5.95399 8.12297C6.76184 8.93081 7.85751 9.38466 8.99998 9.38466ZM8.99998 2.00006C9.60854 2.00006 10.2034 2.18051 10.7094 2.51861C11.2154 2.85671 11.6098 3.33726 11.8427 3.89949C12.0756 4.46172 12.1365 5.08039 12.0178 5.67725C11.8991 6.27411 11.606 6.82237 11.1757 7.25268C10.7454 7.683 10.1971 7.97605 9.60026 8.09477C9.0034 8.21349 8.38473 8.15256 7.8225 7.91967C7.26026 7.68679 6.77971 7.29241 6.44162 6.78642C6.10352 6.28042 5.92306 5.68553 5.92306 5.07697C5.92306 4.26092 6.24724 3.4783 6.82427 2.90126C7.40131 2.32423 8.18393 2.00006 8.99998 2.00006Z" stroke="#575DFB" stroke-width="0.6"/>
<path d="M16.6738 13.92C15.6869 12.877 14.4977 12.0461 13.1788 11.4783C11.8599 10.9105 10.439 10.6177 9.00306 10.6177C7.56712 10.6177 6.14626 10.9105 4.82735 11.4783C3.50844 12.0461 2.31919 12.877 1.33231 13.92C1.11835 14.1486 0.999516 14.45 1 14.7631V18C1 18.3264 1.12967 18.6395 1.36048 18.8703C1.5913 19.1011 1.90435 19.2308 2.23077 19.2308H15.7692C16.0956 19.2308 16.4087 19.1011 16.6395 18.8703C16.8703 18.6395 17 18.3264 17 18V14.7631C17.0021 14.4509 16.8855 14.1495 16.6738 13.92ZM15.7692 18H2.23077V14.757C3.10291 13.8386 4.15279 13.1073 5.31652 12.6076C6.48025 12.1079 7.7335 11.8502 8.99999 11.8502C10.2665 11.8502 11.5197 12.1079 12.6835 12.6076C13.8472 13.1073 14.8971 13.8386 15.7692 14.757V18Z" stroke="#575DFB" stroke-width="0.6"/>
</svg>
